<svg xmlns="http://www.w3.org/2000/svg" xmlns:xlink="http://www.w3.org/1999/xlink" width="500" zoomAndPan="magnify" viewBox="0 0 375 374.999991" height="500" preserveAspectRatio="xMidYMid meet" version="1.0"><defs><g/><clipPath id="788a96d867"><path d="M 82 148 L 138 148 L 138 201.507812 L 82 201.507812 Z M 82 148 " clip-rule="nonzero"/></clipPath><clipPath id="c6461b14b2"><path d="M 99 131.007812 L 121 131.007812 L 121 147 L 99 147 Z M 99 131.007812 " clip-rule="nonzero"/></clipPath></defs><g clip-path="url(#788a96d867)"><path fill="#5ce1e6" d="M 137.949219 194.933594 L 133.480469 153.511719 C 133.152344 150.484375 130.636719 148.207031 127.621094 148.207031 L 92.523438 148.207031 C 89.507812 148.207031 86.992188 150.484375 86.664062 153.511719 L 82.195312 194.9375 C 82.011719 196.613281 82.550781 198.296875 83.664062 199.554688 C 84.78125 200.808594 86.378906 201.527344 88.054688 201.527344 L 132.089844 201.527344 C 133.761719 201.527344 135.363281 200.808594 136.480469 199.554688 C 137.59375 198.296875 138.132812 196.613281 137.949219 194.933594 Z M 118.285156 163.046875 C 119.582031 163.046875 120.628906 164.105469 120.628906 165.410156 C 120.628906 166.714844 119.582031 167.773438 118.285156 167.773438 C 116.992188 167.773438 115.941406 166.714844 115.941406 165.410156 C 115.941406 164.105469 116.992188 163.046875 118.285156 163.046875 Z M 125.847656 174.070312 C 124.128906 181.5 117.640625 186.691406 110.070312 186.691406 L 110.070312 198.433594 L 88.054688 198.433594 C 87.238281 198.433594 86.492188 198.097656 85.949219 197.484375 C 85.402344 196.875 85.15625 196.085938 85.238281 195.269531 L 89.710938 153.847656 C 89.867188 152.394531 91.074219 151.300781 92.523438 151.300781 L 110.070312 151.300781 L 110.070312 183.597656 C 116.210938 183.597656 121.46875 179.390625 122.859375 173.367188 C 123.050781 172.535156 123.875 172.015625 124.703125 172.210938 C 125.527344 172.40625 126.035156 173.238281 125.847656 174.070312 Z M 125.847656 174.070312 " fill-opacity="1" fill-rule="nonzero"/></g><g clip-path="url(#c6461b14b2)"><path fill="#5ce1e6" d="M 110.070312 131.027344 C 104.207031 131.027344 99.433594 135.84375 99.433594 141.761719 L 99.433594 146.0625 L 103.152344 146.0625 L 103.152344 141.761719 C 103.152344 137.910156 106.257812 134.78125 110.070312 134.78125 C 113.886719 134.78125 116.992188 137.910156 116.992188 141.761719 L 116.992188 146.0625 L 120.710938 146.0625 L 120.710938 141.761719 C 120.710938 135.84375 115.9375 131.027344 110.070312 131.027344 Z M 110.070312 131.027344 " fill-opacity="1" fill-rule="nonzero"/></g><path fill="#5ce1e6" d="M 110.070312 183.597656 L 110.070312 186.691406 C 102.503906 186.691406 96.015625 181.5 94.296875 174.070312 C 94.109375 173.238281 94.617188 172.40625 95.441406 172.210938 C 96.265625 172.015625 97.09375 172.535156 97.285156 173.367188 C 98.675781 179.390625 103.933594 183.597656 110.070312 183.597656 Z M 110.070312 183.597656 " fill-opacity="1" fill-rule="nonzero"/><path fill="#5ce1e6" d="M 101.859375 163.046875 C 100.5625 163.046875 99.515625 164.105469 99.515625 165.410156 C 99.515625 166.714844 100.5625 167.773438 101.859375 167.773438 C 103.152344 167.773438 104.203125 166.714844 104.203125 165.410156 C 104.203125 164.105469 103.152344 163.046875 101.859375 163.046875 Z M 101.859375 163.046875 " fill-opacity="1" fill-rule="nonzero"/><g fill="#00c2cb" fill-opacity="1"><g transform="translate(148.63276, 191.249987)"><g><path d="M 0.453125 0 L 0.453125 -10.3125 L 2.515625 -10.3125 L 2.515625 -6.625 L 3.484375 -6.625 L 3.484375 -10.3125 L 5.53125 -10.3125 L 5.53125 0 L 3.484375 0 L 3.484375 -4.6875 L 2.515625 -4.6875 L 2.515625 0 Z M 0.453125 0 "/></g></g></g><g fill="#00c2cb" fill-opacity="1"><g transform="translate(157.620766, 191.249987)"><g><path d="M 0.1875 0 L 1.171875 -10.3125 L 4.671875 -10.3125 L 5.65625 0 L 3.703125 0 L 3.546875 -1.671875 L 2.296875 -1.671875 L 2.1875 0 Z M 2.453125 -3.3125 L 3.390625 -3.3125 L 2.9375 -8.5625 L 2.84375 -8.5625 Z M 2.453125 -3.3125 "/></g></g></g><g fill="#00c2cb" fill-opacity="1"><g transform="translate(166.440773, 191.249987)"><g><path d="M 0.453125 -10.3125 L 3.1875 -10.3125 C 4.007812 -10.3125 4.59375 -10.046875 4.9375 -9.515625 C 5.289062 -8.984375 5.46875 -8.203125 5.46875 -7.171875 C 5.46875 -6.148438 5.3125 -5.378906 5 -4.859375 C 4.6875 -4.335938 4.128906 -4.078125 3.328125 -4.078125 L 2.484375 -4.078125 L 2.484375 0 L 0.453125 0 Z M 2.609375 -5.9375 C 2.847656 -5.9375 3.023438 -5.984375 3.140625 -6.078125 C 3.265625 -6.171875 3.34375 -6.300781 3.375 -6.46875 C 3.414062 -6.644531 3.4375 -6.894531 3.4375 -7.21875 C 3.4375 -7.644531 3.382812 -7.953125 3.28125 -8.140625 C 3.1875 -8.335938 3 -8.4375 2.71875 -8.4375 L 2.484375 -8.4375 L 2.484375 -5.9375 Z M 2.609375 -5.9375 "/></g></g></g><g fill="#00c2cb" fill-opacity="1"><g transform="translate(175.104785, 191.249987)"><g><path d="M 0.453125 -10.3125 L 3.1875 -10.3125 C 4.007812 -10.3125 4.59375 -10.046875 4.9375 -9.515625 C 5.289062 -8.984375 5.46875 -8.203125 5.46875 -7.171875 C 5.46875 -6.148438 5.3125 -5.378906 5 -4.859375 C 4.6875 -4.335938 4.128906 -4.078125 3.328125 -4.078125 L 2.484375 -4.078125 L 2.484375 0 L 0.453125 0 Z M 2.609375 -5.9375 C 2.847656 -5.9375 3.023438 -5.984375 3.140625 -6.078125 C 3.265625 -6.171875 3.34375 -6.300781 3.375 -6.46875 C 3.414062 -6.644531 3.4375 -6.894531 3.4375 -7.21875 C 3.4375 -7.644531 3.382812 -7.953125 3.28125 -8.140625 C 3.1875 -8.335938 3 -8.4375 2.71875 -8.4375 L 2.484375 -8.4375 L 2.484375 -5.9375 Z M 2.609375 -5.9375 "/></g></g></g><g fill="#00c2cb" fill-opacity="1"><g transform="translate(183.768798, 191.249987)"><g><path d="M 1.703125 0 L 1.703125 -3.390625 L 0.0625 -10.3125 L 2.09375 -10.3125 L 2.671875 -6.8125 L 3.25 -10.3125 L 5.296875 -10.3125 L 3.640625 -3.390625 L 3.640625 0 Z M 1.703125 0 "/></g></g></g><g fill="#00c2cb" fill-opacity="1"><g transform="translate(192.12081, 191.249987)"><g/></g></g><g fill="#00c2cb" fill-opacity="1"><g transform="translate(197.928812, 191.249987)"><g><path d="M 2.90625 0.09375 C 1.96875 0.09375 1.289062 -0.132812 0.875 -0.59375 C 0.457031 -1.0625 0.25 -1.8125 0.25 -2.84375 L 0.25 -3.859375 L 2.28125 -3.859375 L 2.28125 -2.5625 C 2.28125 -2.050781 2.441406 -1.796875 2.765625 -1.796875 C 2.953125 -1.796875 3.082031 -1.847656 3.15625 -1.953125 C 3.226562 -2.066406 3.265625 -2.253906 3.265625 -2.515625 C 3.265625 -2.847656 3.222656 -3.125 3.140625 -3.34375 C 3.066406 -3.5625 2.96875 -3.742188 2.84375 -3.890625 C 2.71875 -4.035156 2.492188 -4.265625 2.171875 -4.578125 L 1.28125 -5.46875 C 0.59375 -6.144531 0.25 -6.890625 0.25 -7.703125 C 0.25 -8.585938 0.453125 -9.257812 0.859375 -9.71875 C 1.265625 -10.175781 1.851562 -10.40625 2.625 -10.40625 C 3.550781 -10.40625 4.21875 -10.15625 4.625 -9.65625 C 5.039062 -9.164062 5.25 -8.398438 5.25 -7.359375 L 3.140625 -7.359375 L 3.125 -8.0625 C 3.125 -8.195312 3.085938 -8.304688 3.015625 -8.390625 C 2.941406 -8.472656 2.835938 -8.515625 2.703125 -8.515625 C 2.535156 -8.515625 2.410156 -8.46875 2.328125 -8.375 C 2.253906 -8.289062 2.21875 -8.171875 2.21875 -8.015625 C 2.21875 -7.679688 2.410156 -7.332031 2.796875 -6.96875 L 4 -5.8125 C 4.28125 -5.539062 4.507812 -5.285156 4.6875 -5.046875 C 4.875 -4.804688 5.019531 -4.519531 5.125 -4.1875 C 5.238281 -3.851562 5.296875 -3.457031 5.296875 -3 C 5.296875 -1.976562 5.109375 -1.207031 4.734375 -0.6875 C 4.367188 -0.164062 3.757812 0.09375 2.90625 0.09375 Z M 2.90625 0.09375 "/></g></g></g><g fill="#00c2cb" fill-opacity="1"><g transform="translate(206.460828, 191.249987)"><g><path d="M 0.453125 0 L 0.453125 -10.3125 L 2.515625 -10.3125 L 2.515625 -6.625 L 3.484375 -6.625 L 3.484375 -10.3125 L 5.53125 -10.3125 L 5.53125 0 L 3.484375 0 L 3.484375 -4.6875 L 2.515625 -4.6875 L 2.515625 0 Z M 0.453125 0 "/></g></g></g><g fill="#00c2cb" fill-opacity="1"><g transform="translate(215.448834, 191.249987)"><g><path d="M 2.921875 0.09375 C 2.085938 0.09375 1.453125 -0.15625 1.015625 -0.65625 C 0.585938 -1.164062 0.375 -1.882812 0.375 -2.8125 L 0.375 -7.71875 C 0.375 -8.601562 0.585938 -9.269531 1.015625 -9.71875 C 1.453125 -10.175781 2.085938 -10.40625 2.921875 -10.40625 C 3.742188 -10.40625 4.367188 -10.175781 4.796875 -9.71875 C 5.234375 -9.269531 5.453125 -8.601562 5.453125 -7.71875 L 5.453125 -2.8125 C 5.453125 -1.882812 5.234375 -1.164062 4.796875 -0.65625 C 4.367188 -0.15625 3.742188 0.09375 2.921875 0.09375 Z M 2.921875 -1.796875 C 3.097656 -1.796875 3.21875 -1.875 3.28125 -2.03125 C 3.351562 -2.195312 3.390625 -2.425781 3.390625 -2.71875 L 3.390625 -7.75 C 3.390625 -7.976562 3.359375 -8.160156 3.296875 -8.296875 C 3.234375 -8.441406 3.109375 -8.515625 2.921875 -8.515625 C 2.578125 -8.515625 2.40625 -8.253906 2.40625 -7.734375 L 2.40625 -2.703125 C 2.40625 -2.398438 2.441406 -2.171875 2.515625 -2.015625 C 2.585938 -1.867188 2.722656 -1.796875 2.921875 -1.796875 Z M 2.921875 -1.796875 "/></g></g></g><g fill="#00c2cb" fill-opacity="1"><g transform="translate(224.280846, 191.249987)"><g><path d="M 0.453125 -10.3125 L 3.1875 -10.3125 C 4.007812 -10.3125 4.59375 -10.046875 4.9375 -9.515625 C 5.289062 -8.984375 5.46875 -8.203125 5.46875 -7.171875 C 5.46875 -6.148438 5.3125 -5.378906 5 -4.859375 C 4.6875 -4.335938 4.128906 -4.078125 3.328125 -4.078125 L 2.484375 -4.078125 L 2.484375 0 L 0.453125 0 Z M 2.609375 -5.9375 C 2.847656 -5.9375 3.023438 -5.984375 3.140625 -6.078125 C 3.265625 -6.171875 3.34375 -6.300781 3.375 -6.46875 C 3.414062 -6.644531 3.4375 -6.894531 3.4375 -7.21875 C 3.4375 -7.644531 3.382812 -7.953125 3.28125 -8.140625 C 3.1875 -8.335938 3 -8.4375 2.71875 -8.4375 L 2.484375 -8.4375 L 2.484375 -5.9375 Z M 2.609375 -5.9375 "/></g></g></g><g fill="#00c2cb" fill-opacity="1"><g transform="translate(232.944858, 191.249987)"><g><path d="M 0.453125 -10.3125 L 3.1875 -10.3125 C 4.007812 -10.3125 4.59375 -10.046875 4.9375 -9.515625 C 5.289062 -8.984375 5.46875 -8.203125 5.46875 -7.171875 C 5.46875 -6.148438 5.3125 -5.378906 5 -4.859375 C 4.6875 -4.335938 4.128906 -4.078125 3.328125 -4.078125 L 2.484375 -4.078125 L 2.484375 0 L 0.453125 0 Z M 2.609375 -5.9375 C 2.847656 -5.9375 3.023438 -5.984375 3.140625 -6.078125 C 3.265625 -6.171875 3.34375 -6.300781 3.375 -6.46875 C 3.414062 -6.644531 3.4375 -6.894531 3.4375 -7.21875 C 3.4375 -7.644531 3.382812 -7.953125 3.28125 -8.140625 C 3.1875 -8.335938 3 -8.4375 2.71875 -8.4375 L 2.484375 -8.4375 L 2.484375 -5.9375 Z M 2.609375 -5.9375 "/></g></g></g><g fill="#00c2cb" fill-opacity="1"><g transform="translate(241.60887, 191.249987)"><g><path d="M 0.359375 0 L 0.359375 -10.3125 L 2.359375 -10.3125 L 2.359375 0 Z M 0.359375 0 "/></g></g></g><g fill="#00c2cb" fill-opacity="1"><g transform="translate(247.332873, 191.249987)"><g><path d="M 0.453125 0 L 0.453125 -10.3125 L 2.578125 -10.3125 L 3.53125 -5.375 L 3.53125 -10.3125 L 5.515625 -10.3125 L 5.515625 0 L 3.5 0 L 2.46875 -5.15625 L 2.46875 0 Z M 0.453125 0 "/></g></g></g><g fill="#00c2cb" fill-opacity="1"><g transform="translate(256.308885, 191.249987)"><g><path d="M 2.578125 0.09375 C 1.835938 0.09375 1.285156 -0.164062 0.921875 -0.6875 C 0.554688 -1.207031 0.375 -2.003906 0.375 -3.078125 L 0.375 -7.515625 C 0.375 -8.460938 0.582031 -9.179688 1 -9.671875 C 1.425781 -10.160156 2.0625 -10.40625 2.90625 -10.40625 C 3.582031 -10.40625 4.109375 -10.269531 4.484375 -10 C 4.859375 -9.726562 5.117188 -9.332031 5.265625 -8.8125 C 5.410156 -8.289062 5.484375 -7.617188 5.484375 -6.796875 L 3.46875 -6.796875 L 3.46875 -7.734375 C 3.46875 -7.972656 3.429688 -8.160156 3.359375 -8.296875 C 3.296875 -8.441406 3.175781 -8.515625 3 -8.515625 C 2.601562 -8.515625 2.40625 -8.253906 2.40625 -7.734375 L 2.40625 -2.75 C 2.40625 -2.4375 2.445312 -2.195312 2.53125 -2.03125 C 2.613281 -1.875 2.753906 -1.796875 2.953125 -1.796875 C 3.148438 -1.796875 3.285156 -1.875 3.359375 -2.03125 C 3.441406 -2.195312 3.484375 -2.4375 3.484375 -2.75 L 3.484375 -4.21875 L 2.9375 -4.21875 L 2.9375 -6 L 5.453125 -6 L 5.453125 0 L 4.625 0 L 4.28125 -0.859375 C 3.914062 -0.222656 3.347656 0.09375 2.578125 0.09375 Z M 2.578125 0.09375 "/></g></g></g><g fill="#000000" fill-opacity="1"><g transform="translate(144.648959, 175.109989)"><g><path d="M 5.8125 0.1875 C 3.9375 0.1875 2.582031 -0.273438 1.75 -1.203125 C 0.914062 -2.128906 0.5 -3.625 0.5 -5.6875 L 0.5 -7.703125 L 4.5625 -7.703125 L 4.5625 -5.140625 C 4.5625 -4.109375 4.890625 -3.59375 5.546875 -3.59375 C 5.910156 -3.59375 6.164062 -3.703125 6.3125 -3.921875 C 6.457031 -4.140625 6.53125 -4.503906 6.53125 -5.015625 C 6.53125 -5.691406 6.445312 -6.25 6.28125 -6.6875 C 6.125 -7.125 5.921875 -7.488281 5.671875 -7.78125 C 5.421875 -8.082031 4.976562 -8.546875 4.34375 -9.171875 L 2.5625 -10.9375 C 1.1875 -12.28125 0.5 -13.769531 0.5 -15.40625 C 0.5 -17.164062 0.898438 -18.503906 1.703125 -19.421875 C 2.515625 -20.347656 3.695312 -20.8125 5.25 -20.8125 C 7.113281 -20.8125 8.453125 -20.316406 9.265625 -19.328125 C 10.078125 -18.347656 10.484375 -16.8125 10.484375 -14.71875 L 6.28125 -14.71875 L 6.265625 -16.125 C 6.265625 -16.394531 6.1875 -16.609375 6.03125 -16.765625 C 5.882812 -16.929688 5.675781 -17.015625 5.40625 -17.015625 C 5.082031 -17.015625 4.835938 -16.925781 4.671875 -16.75 C 4.515625 -16.570312 4.4375 -16.332031 4.4375 -16.03125 C 4.4375 -15.363281 4.820312 -14.664062 5.59375 -13.9375 L 7.984375 -11.640625 C 8.546875 -11.097656 9.007812 -10.582031 9.375 -10.09375 C 9.75 -9.601562 10.046875 -9.023438 10.265625 -8.359375 C 10.492188 -7.703125 10.609375 -6.914062 10.609375 -6 C 10.609375 -3.96875 10.234375 -2.425781 9.484375 -1.375 C 8.742188 -0.332031 7.519531 0.1875 5.8125 0.1875 Z M 5.8125 0.1875 "/></g></g></g><g fill="#000000" fill-opacity="1"><g transform="translate(155.71298, 175.109989)"><g><path d="M 0.90625 0 L 0.90625 -20.609375 L 5.015625 -20.609375 L 5.015625 -13.25 L 6.953125 -13.25 L 6.953125 -20.609375 L 11.0625 -20.609375 L 11.0625 0 L 6.953125 0 L 6.953125 -9.359375 L 5.015625 -9.359375 L 5.015625 0 Z M 0.90625 0 "/></g></g></g><g fill="#000000" fill-opacity="1"><g transform="translate(167.689004, 175.109989)"><g><path d="M 5.828125 0.1875 C 4.171875 0.1875 2.910156 -0.316406 2.046875 -1.328125 C 1.179688 -2.347656 0.75 -3.773438 0.75 -5.609375 L 0.75 -15.4375 C 0.75 -17.207031 1.179688 -18.546875 2.046875 -19.453125 C 2.910156 -20.359375 4.171875 -20.8125 5.828125 -20.8125 C 7.492188 -20.8125 8.757812 -20.359375 9.625 -19.453125 C 10.488281 -18.546875 10.921875 -17.207031 10.921875 -15.4375 L 10.921875 -5.609375 C 10.921875 -3.753906 10.488281 -2.320312 9.625 -1.3125 C 8.757812 -0.3125 7.492188 0.1875 5.828125 0.1875 Z M 5.828125 -3.59375 C 6.203125 -3.59375 6.453125 -3.753906 6.578125 -4.078125 C 6.703125 -4.398438 6.765625 -4.847656 6.765625 -5.421875 L 6.765625 -15.5 C 6.765625 -15.945312 6.703125 -16.3125 6.578125 -16.59375 C 6.460938 -16.875 6.222656 -17.015625 5.859375 -17.015625 C 5.171875 -17.015625 4.828125 -16.492188 4.828125 -15.453125 L 4.828125 -5.40625 C 4.828125 -4.8125 4.894531 -4.359375 5.03125 -4.046875 C 5.175781 -3.742188 5.441406 -3.59375 5.828125 -3.59375 Z M 5.828125 -3.59375 "/></g></g></g><g fill="#000000" fill-opacity="1"><g transform="translate(179.353027, 175.109989)"><g><path d="M 0.90625 -20.609375 L 6.359375 -20.609375 C 8.003906 -20.609375 9.175781 -20.078125 9.875 -19.015625 C 10.582031 -17.953125 10.9375 -16.398438 10.9375 -14.359375 C 10.9375 -12.304688 10.625 -10.757812 10 -9.71875 C 9.382812 -8.675781 8.265625 -8.15625 6.640625 -8.15625 L 4.96875 -8.15625 L 4.96875 0 L 0.90625 0 Z M 5.203125 -11.875 C 5.703125 -11.875 6.066406 -11.96875 6.296875 -12.15625 C 6.523438 -12.34375 6.675781 -12.609375 6.75 -12.953125 C 6.820312 -13.296875 6.859375 -13.785156 6.859375 -14.421875 C 6.859375 -15.285156 6.757812 -15.910156 6.5625 -16.296875 C 6.375 -16.679688 5.992188 -16.875 5.421875 -16.875 L 4.96875 -16.875 L 4.96875 -11.875 Z M 5.203125 -11.875 "/></g></g></g><g fill="#000000" fill-opacity="1"><g transform="translate(190.681052, 175.109989)"><g><path d="M 0.90625 -20.609375 L 6.5 -20.609375 C 8.007812 -20.609375 9.101562 -20.238281 9.78125 -19.5 C 10.457031 -18.769531 10.796875 -17.570312 10.796875 -15.90625 L 10.796875 -15 C 10.796875 -13.03125 10.09375 -11.851562 8.6875 -11.46875 C 9.550781 -11.25 10.160156 -10.726562 10.515625 -9.90625 C 10.867188 -9.09375 11.046875 -8.015625 11.046875 -6.671875 C 11.046875 -4.484375 10.71875 -2.820312 10.0625 -1.6875 C 9.40625 -0.5625 8.21875 0 6.5 0 L 0.90625 0 Z M 5.78125 -12.859375 C 6.132812 -12.859375 6.375 -12.988281 6.5 -13.25 C 6.632812 -13.519531 6.703125 -13.894531 6.703125 -14.375 L 6.703125 -16.4375 C 6.703125 -17.113281 6.40625 -17.453125 5.8125 -17.453125 L 4.9375 -17.453125 L 4.9375 -12.859375 Z M 5.359375 -3.625 C 6.421875 -3.625 6.953125 -4.132812 6.953125 -5.15625 L 6.953125 -7.734375 C 6.953125 -8.347656 6.859375 -8.816406 6.671875 -9.140625 C 6.492188 -9.460938 6.175781 -9.625 5.71875 -9.625 L 4.9375 -9.625 L 4.9375 -3.640625 Z M 5.359375 -3.625 "/></g></g></g><g fill="#000000" fill-opacity="1"><g transform="translate(202.177077, 175.109989)"><g><path d="M 3.40625 0 L 3.40625 -6.796875 L 0.125 -20.609375 L 4.203125 -20.609375 L 5.359375 -13.625 L 6.5 -20.609375 L 10.578125 -20.609375 L 7.296875 -6.796875 L 7.296875 0 Z M 3.40625 0 "/></g></g></g><g fill="#000000" fill-opacity="1"><g transform="translate(212.881101, 175.109989)"><g><path d="M 5.71875 0.1875 C 4.207031 0.1875 3 -0.28125 2.09375 -1.21875 C 1.195312 -2.164062 0.75 -3.460938 0.75 -5.109375 L 0.75 -14.609375 C 0.75 -16.660156 1.15625 -18.207031 1.96875 -19.25 C 2.78125 -20.289062 4.0625 -20.8125 5.8125 -20.8125 C 7.332031 -20.8125 8.554688 -20.394531 9.484375 -19.5625 C 10.410156 -18.726562 10.875 -17.523438 10.875 -15.953125 L 10.875 -12.40625 L 6.765625 -12.40625 L 6.765625 -15.453125 C 6.765625 -16.046875 6.691406 -16.453125 6.546875 -16.671875 C 6.410156 -16.898438 6.164062 -17.015625 5.8125 -17.015625 C 5.4375 -17.015625 5.179688 -16.882812 5.046875 -16.625 C 4.910156 -16.375 4.84375 -16 4.84375 -15.5 L 4.84375 -5.15625 C 4.84375 -4.613281 4.921875 -4.21875 5.078125 -3.96875 C 5.242188 -3.71875 5.488281 -3.59375 5.8125 -3.59375 C 6.445312 -3.59375 6.765625 -4.113281 6.765625 -5.15625 L 6.765625 -8.875 L 10.921875 -8.875 L 10.921875 -4.984375 C 10.921875 -1.535156 9.1875 0.1875 5.71875 0.1875 Z M 5.71875 0.1875 "/></g></g></g><g fill="#000000" fill-opacity="1"><g transform="translate(224.257123, 175.109989)"><g><path d="M 0.90625 0 L 0.90625 -20.609375 L 5.046875 -20.609375 L 5.046875 -3.5 L 9.28125 -3.5 L 9.28125 0 Z M 0.90625 0 "/></g></g></g><g fill="#000000" fill-opacity="1"><g transform="translate(233.785141, 175.109989)"><g><path d="M 5.6875 0.1875 C 3.988281 0.1875 2.726562 -0.289062 1.90625 -1.25 C 1.082031 -2.207031 0.671875 -3.628906 0.671875 -5.515625 L 0.671875 -20.609375 L 4.6875 -20.609375 L 4.6875 -5.6875 C 4.6875 -5.03125 4.75 -4.515625 4.875 -4.140625 C 5 -3.773438 5.269531 -3.59375 5.6875 -3.59375 C 6.101562 -3.59375 6.375 -3.773438 6.5 -4.140625 C 6.632812 -4.503906 6.703125 -5.019531 6.703125 -5.6875 L 6.703125 -20.609375 L 10.703125 -20.609375 L 10.703125 -5.515625 C 10.703125 -3.628906 10.289062 -2.207031 9.46875 -1.25 C 8.644531 -0.289062 7.382812 0.1875 5.6875 0.1875 Z M 5.6875 0.1875 "/></g></g></g><g fill="#000000" fill-opacity="1"><g transform="translate(245.161163, 175.109989)"><g><path d="M 0.90625 0 L 0.90625 -20.609375 L 9.171875 -20.609375 L 9.171875 -16.625 L 5.109375 -16.625 L 5.109375 -12.625 L 9 -12.625 L 9 -8.734375 L 5.109375 -8.734375 L 5.109375 -4.015625 L 9.4375 -4.015625 L 9.4375 0 Z M 0.90625 0 "/></g></g></g><g fill="#000000" fill-opacity="1"><g transform="translate(255.049178, 175.109989)"><g><path d="M 5.8125 0.1875 C 3.9375 0.1875 2.582031 -0.273438 1.75 -1.203125 C 0.914062 -2.128906 0.5 -3.625 0.5 -5.6875 L 0.5 -7.703125 L 4.5625 -7.703125 L 4.5625 -5.140625 C 4.5625 -4.109375 4.890625 -3.59375 5.546875 -3.59375 C 5.910156 -3.59375 6.164062 -3.703125 6.3125 -3.921875 C 6.457031 -4.140625 6.53125 -4.503906 6.53125 -5.015625 C 6.53125 -5.691406 6.445312 -6.25 6.28125 -6.6875 C 6.125 -7.125 5.921875 -7.488281 5.671875 -7.78125 C 5.421875 -8.082031 4.976562 -8.546875 4.34375 -9.171875 L 2.5625 -10.9375 C 1.1875 -12.28125 0.5 -13.769531 0.5 -15.40625 C 0.5 -17.164062 0.898438 -18.503906 1.703125 -19.421875 C 2.515625 -20.347656 3.695312 -20.8125 5.25 -20.8125 C 7.113281 -20.8125 8.453125 -20.316406 9.265625 -19.328125 C 10.078125 -18.347656 10.484375 -16.8125 10.484375 -14.71875 L 6.28125 -14.71875 L 6.265625 -16.125 C 6.265625 -16.394531 6.1875 -16.609375 6.03125 -16.765625 C 5.882812 -16.929688 5.675781 -17.015625 5.40625 -17.015625 C 5.082031 -17.015625 4.835938 -16.925781 4.671875 -16.75 C 4.515625 -16.570312 4.4375 -16.332031 4.4375 -16.03125 C 4.4375 -15.363281 4.820312 -14.664062 5.59375 -13.9375 L 7.984375 -11.640625 C 8.546875 -11.097656 9.007812 -10.582031 9.375 -10.09375 C 9.75 -9.601562 10.046875 -9.023438 10.265625 -8.359375 C 10.492188 -7.703125 10.609375 -6.914062 10.609375 -6 C 10.609375 -3.96875 10.234375 -2.425781 9.484375 -1.375 C 8.742188 -0.332031 7.519531 0.1875 5.8125 0.1875 Z M 5.8125 0.1875 "/></g></g></g></svg>